<svg width="753" height="800" viewBox="0 0 753 800" fill="none" xmlns="http://www.w3.org/2000/svg">
<circle cx="1047.88" cy="265.882" r="855.093" transform="rotate(-15 1047.88 265.882)" stroke="url(#paint0_linear_46481_38898)" stroke-opacity="0.2"/>
<circle cx="1049.89" cy="262.4" r="778.345" transform="rotate(-15 1049.89 262.4)" stroke="url(#paint1_linear_46481_38898)" stroke-opacity="0.2"/>
<circle cx="1049.89" cy="262.399" r="817.49" transform="rotate(-15 1049.89 262.399)" stroke="url(#paint2_linear_46481_38898)" stroke-opacity="0.2"/>
<circle cx="1056.01" cy="270.572" r="713.915" transform="rotate(-15 1056.01 270.572)" stroke="url(#paint3_linear_46481_38898)" stroke-opacity="0.2"/>
<circle cx="1056" cy="270.572" r="749.51" transform="rotate(-15 1056 270.572)" stroke="url(#paint4_linear_46481_38898)" stroke-opacity="0.2"/>
<circle cx="1059.67" cy="269.59" r="634.325" transform="rotate(-15 1059.67 269.59)" stroke="url(#paint5_linear_46481_38898)" stroke-opacity="0.2"/>
<circle cx="1059.67" cy="269.59" r="675.403" transform="rotate(-15 1059.67 269.59)" stroke="url(#paint6_linear_46481_38898)" stroke-opacity="0.2"/>
<circle cx="1059.67" cy="269.591" r="560.42" transform="rotate(-15 1059.67 269.591)" stroke="url(#paint7_linear_46481_38898)" stroke-opacity="0.2"/>
<circle cx="1059.67" cy="269.592" r="595.967" transform="rotate(-15 1059.67 269.592)" stroke="url(#paint8_linear_46481_38898)" stroke-opacity="0.2"/>
<circle cx="1059.67" cy="269.592" r="490.305" transform="rotate(-15 1059.67 269.592)" stroke="url(#paint9_linear_46481_38898)" stroke-opacity="0.2"/>
<circle cx="1059.67" cy="269.592" r="524.736" transform="rotate(-15 1059.67 269.592)" stroke="url(#paint10_linear_46481_38898)" stroke-opacity="0.2"/>
<circle cx="1063.77" cy="281.243" r="426.823" transform="rotate(-15 1063.77 281.243)" stroke="url(#paint11_linear_46481_38898)" stroke-opacity="0.2"/>
<circle cx="1063.77" cy="281.243" r="461.343" transform="rotate(-15 1063.77 281.243)" stroke="url(#paint12_linear_46481_38898)" stroke-opacity="0.2"/>
<circle cx="1063.1" cy="282.404" r="351.97" transform="rotate(-15 1063.1 282.404)" stroke="url(#paint13_linear_46481_38898)" stroke-opacity="0.2"/>
<circle cx="1063.1" cy="282.404" r="389.087" transform="rotate(-15 1063.1 282.404)" stroke="url(#paint14_linear_46481_38898)" stroke-opacity="0.2"/>
<circle cx="1059.67" cy="269.592" r="272.38" transform="rotate(-15 1059.67 269.592)" stroke="url(#paint15_linear_46481_38898)" stroke-opacity="0.2"/>
<circle cx="1059.67" cy="269.592" r="310.796" transform="rotate(-15 1059.67 269.592)" stroke="url(#paint16_linear_46481_38898)" stroke-opacity="0.2"/>
<defs>
<linearGradient id="paint0_linear_46481_38898" x1="1047.88" y1="-589.711" x2="1047.88" y2="1121.47" gradientUnits="userSpaceOnUse">
<stop stop-color="#1B1A1F"/>
<stop offset="1" stop-color="#737373"/>
</linearGradient>
<linearGradient id="paint1_linear_46481_38898" x1="1049.89" y1="-516.446" x2="1049.89" y2="1041.24" gradientUnits="userSpaceOnUse">
<stop stop-color="#1B1A1F"/>
<stop offset="1" stop-color="#737373"/>
</linearGradient>
<linearGradient id="paint2_linear_46481_38898" x1="1049.89" y1="-555.591" x2="1049.89" y2="1080.39" gradientUnits="userSpaceOnUse">
<stop stop-color="#1B1A1F"/>
<stop offset="1" stop-color="#737373"/>
</linearGradient>
<linearGradient id="paint3_linear_46481_38898" x1="1056.01" y1="-443.843" x2="1056.01" y2="984.987" gradientUnits="userSpaceOnUse">
<stop stop-color="#1B1A1F"/>
<stop offset="1" stop-color="#737373"/>
</linearGradient>
<linearGradient id="paint4_linear_46481_38898" x1="1056" y1="-479.437" x2="1056" y2="1020.58" gradientUnits="userSpaceOnUse">
<stop stop-color="#1B1A1F"/>
<stop offset="1" stop-color="#737373"/>
</linearGradient>
<linearGradient id="paint5_linear_46481_38898" x1="1059.67" y1="-365.235" x2="1059.67" y2="904.416" gradientUnits="userSpaceOnUse">
<stop stop-color="#1B1A1F"/>
<stop offset="1" stop-color="#737373"/>
</linearGradient>
<linearGradient id="paint6_linear_46481_38898" x1="1059.67" y1="-406.313" x2="1059.67" y2="945.493" gradientUnits="userSpaceOnUse">
<stop stop-color="#1B1A1F"/>
<stop offset="1" stop-color="#737373"/>
</linearGradient>
<linearGradient id="paint7_linear_46481_38898" x1="1059.67" y1="-291.329" x2="1059.67" y2="830.511" gradientUnits="userSpaceOnUse">
<stop stop-color="#1B1A1F"/>
<stop offset="1" stop-color="#737373"/>
</linearGradient>
<linearGradient id="paint8_linear_46481_38898" x1="1059.67" y1="-326.875" x2="1059.67" y2="866.059" gradientUnits="userSpaceOnUse">
<stop stop-color="#1B1A1F"/>
<stop offset="1" stop-color="#737373"/>
</linearGradient>
<linearGradient id="paint9_linear_46481_38898" x1="1059.67" y1="-221.213" x2="1059.67" y2="760.397" gradientUnits="userSpaceOnUse">
<stop stop-color="#1B1A1F"/>
<stop offset="1" stop-color="#737373"/>
</linearGradient>
<linearGradient id="paint10_linear_46481_38898" x1="1059.67" y1="-255.645" x2="1059.67" y2="794.828" gradientUnits="userSpaceOnUse">
<stop stop-color="#1B1A1F"/>
<stop offset="1" stop-color="#737373"/>
</linearGradient>
<linearGradient id="paint11_linear_46481_38898" x1="1063.77" y1="-146.08" x2="1063.77" y2="708.565" gradientUnits="userSpaceOnUse">
<stop stop-color="#1B1A1F"/>
<stop offset="1" stop-color="#737373"/>
</linearGradient>
<linearGradient id="paint12_linear_46481_38898" x1="1063.77" y1="-180.601" x2="1063.77" y2="743.086" gradientUnits="userSpaceOnUse">
<stop stop-color="#1B1A1F"/>
<stop offset="1" stop-color="#737373"/>
</linearGradient>
<linearGradient id="paint13_linear_46481_38898" x1="1063.1" y1="-70.0662" x2="1063.1" y2="634.874" gradientUnits="userSpaceOnUse">
<stop stop-color="#1B1A1F"/>
<stop offset="1" stop-color="#737373"/>
</linearGradient>
<linearGradient id="paint14_linear_46481_38898" x1="1063.1" y1="-107.184" x2="1063.1" y2="671.991" gradientUnits="userSpaceOnUse">
<stop stop-color="#1B1A1F"/>
<stop offset="1" stop-color="#737373"/>
</linearGradient>
<linearGradient id="paint15_linear_46481_38898" x1="1059.67" y1="-3.28799" x2="1059.67" y2="542.472" gradientUnits="userSpaceOnUse">
<stop stop-color="#1B1A1F"/>
<stop offset="1" stop-color="#737373"/>
</linearGradient>
<linearGradient id="paint16_linear_46481_38898" x1="1059.67" y1="-41.704" x2="1059.67" y2="580.889" gradientUnits="userSpaceOnUse">
<stop stop-color="#1B1A1F"/>
<stop offset="1" stop-color="#737373"/>
</linearGradient>
</defs>
</svg>
