<svg width="148" height="39" viewBox="0 0 148 39" fill="none" xmlns="http://www.w3.org/2000/svg">
<path d="M9.12 31.352C7.60533 31.352 5.41867 31.2347 2.56 31L2.944 23.224L2.56 8.92H11.104C13.984 8.92 16.2347 9.784 17.856 11.512C19.4773 13.24 20.288 15.64 20.288 18.712C20.288 22.5947 19.2853 25.6773 17.28 27.96C15.2747 30.2213 12.5547 31.352 9.12 31.352ZM9.952 12.376C8.544 12.376 7.552 12.3867 6.976 12.408L6.656 22.68L6.88 27.864C8.672 27.992 9.87733 28.056 10.496 28.056C12.1813 28.056 13.504 27.3733 14.464 26.008C15.4453 24.6427 15.936 22.6587 15.936 20.056C15.936 17.4533 15.456 15.5227 14.496 14.264C13.5573 13.0053 12.0427 12.376 9.952 12.376ZM21.826 24.312C21.826 21.5813 22.562 19.2667 24.034 17.368C25.506 15.4693 27.2233 14.52 29.186 14.52C31.17 14.52 32.706 15.16 33.794 16.44C34.9033 17.72 35.458 19.416 35.458 21.528C35.458 24.344 34.7433 26.6907 33.314 28.568C31.906 30.424 30.1247 31.352 27.97 31.352C26.1993 31.352 24.7273 30.6907 23.554 29.368C22.402 28.024 21.826 26.3387 21.826 24.312ZM31.874 23.192C31.874 20.0987 30.818 18.552 28.706 18.552C26.5087 18.552 25.41 20.0027 25.41 22.904C25.41 24.4187 25.7193 25.6027 26.338 26.456C26.9567 27.3093 27.7673 27.736 28.77 27.736C29.794 27.736 30.562 27.352 31.074 26.584C31.6073 25.7947 31.874 24.664 31.874 23.192ZM54.7698 22.904C54.7698 21.432 54.6418 20.4507 54.3858 19.96C54.1298 19.4693 53.5324 19.224 52.5938 19.224C51.6551 19.224 50.5884 19.5973 49.3938 20.344V22.68L49.7458 30.2L45.4578 31L45.8418 23.224C45.7564 20.3653 45.5218 17.8053 45.1378 15.544L49.0098 14.712C49.1591 15.9493 49.2658 17.1547 49.3298 18.328C49.6498 17.9013 50.0124 17.4853 50.4178 17.08C50.8231 16.6533 51.4631 16.184 52.3378 15.672C53.2124 15.1387 54.1298 14.872 55.0898 14.872C56.0711 14.872 56.8924 15.256 57.5538 16.024C58.2151 16.7707 58.5458 17.7947 58.5458 19.096L58.3538 22.68L58.7058 30.36L54.3858 31.16L54.7698 22.904ZM60.7998 34.168C60.7998 32.2907 62.5491 30.8187 66.0478 29.752C65.2158 29.3253 64.7998 28.7707 64.7998 28.088C64.7998 27.8107 64.9064 27.5333 65.1198 27.256C65.3331 26.9787 65.6424 26.6907 66.0478 26.392V26.136C64.5118 26.136 63.2851 25.7093 62.3678 24.856C61.4718 24.0027 61.0238 22.8613 61.0238 21.432C61.0238 19.576 61.7811 17.9653 63.2958 16.6C64.8104 15.2133 66.6024 14.52 68.6718 14.52C69.2051 14.52 69.9838 14.6267 71.0078 14.84C72.0318 15.0533 73.0344 15.16 74.0158 15.16H76.4798L76.1598 17.944L73.7598 17.656C73.9731 18.2747 74.0798 18.9787 74.0798 19.768C74.0798 20.5573 73.8878 21.3467 73.5038 22.136C73.1411 22.904 72.6931 23.5227 72.1598 23.992C71.6478 24.4613 71.1251 24.8773 70.5918 25.24C70.0798 25.5813 69.6318 25.8907 69.2478 26.168C68.8851 26.424 68.7038 26.6587 68.7038 26.872C68.7038 27.2773 69.1304 27.6293 69.9838 27.928C72.2451 28.8453 73.7704 29.624 74.5598 30.264C75.3704 30.904 75.7758 31.6933 75.7758 32.632C75.7758 34.2107 74.9758 35.5013 73.3758 36.504C71.7971 37.528 69.9091 38.04 67.7118 38.04C65.5144 38.04 63.8078 37.688 62.5918 36.984C61.3971 36.28 60.7998 35.3413 60.7998 34.168ZM70.4638 20.728C70.4638 19.6827 70.2291 18.9147 69.7598 18.424C69.2904 17.9333 68.5544 17.688 67.5518 17.688C65.6104 17.688 64.6398 18.648 64.6398 20.568C64.6398 22.4667 65.6744 23.416 67.7438 23.416C69.5571 23.416 70.4638 22.52 70.4638 20.728ZM71.6158 33.112C71.6158 32.728 71.4131 32.3653 71.0078 32.024C70.6024 31.704 69.8771 31.32 68.8318 30.872C67.2744 31.2987 66.1971 31.6933 65.5998 32.056C65.0238 32.4187 64.7358 32.8667 64.7358 33.4C64.7358 33.9333 65.0238 34.36 65.5998 34.68C66.1971 35.0213 67.0184 35.192 68.0638 35.192C69.1091 35.192 69.9624 35 70.6238 34.616C71.2851 34.232 71.6158 33.7307 71.6158 33.112ZM89.7858 12.344H82.9698L82.7778 18.232H88.8898L88.5378 21.624H82.6818L82.6498 22.68L83.0338 31H78.5538L78.9378 23.224L78.5538 8.92H90.1378L89.7858 12.344ZM95.206 31C93.9473 31 92.9127 30.6053 92.102 29.816C91.3127 29.0053 90.918 27.928 90.918 26.584C90.918 25.2187 91.5367 24.0453 92.774 23.064C94.0113 22.0613 95.5153 21.56 97.286 21.56H99.462V21.016C99.462 19.9707 99.2487 19.256 98.822 18.872C98.3953 18.488 97.5953 18.296 96.422 18.296C95.9313 18.296 95.3447 18.4027 94.662 18.616C94.0007 18.808 93.254 19.1173 92.422 19.544L91.494 17.016C92.4113 16.376 93.5207 15.8 94.822 15.288C96.1447 14.776 97.2327 14.52 98.086 14.52C101.435 14.52 103.11 16.1413 103.11 19.384V25.656C103.11 26.8507 103.483 28.184 104.23 29.656L100.838 31.096C100.305 30.072 99.91 29.1547 99.654 28.344C98.4807 30.1147 96.998 31 95.206 31ZM96.55 27.736C97.4033 27.736 98.374 27.2987 99.462 26.424V24.28C98.3313 24.024 97.414 23.896 96.71 23.896C95.366 23.896 94.694 24.4933 94.694 25.688C94.694 26.3067 94.8647 26.808 95.206 27.192C95.5473 27.5547 95.9953 27.736 96.55 27.736ZM106.334 15.544L110.206 14.712C110.398 16.3547 110.526 17.912 110.59 19.384C112.531 16.376 114.355 14.872 116.062 14.872L115.71 19.864C114.473 19.864 113.491 19.9813 112.766 20.216C112.062 20.4293 111.337 20.8667 110.59 21.528V22.68L110.942 30.2L106.654 31L107.038 23.224C106.953 20.3653 106.718 17.8053 106.334 15.544ZM127.052 22.904C127.052 21.432 126.924 20.4507 126.668 19.96C126.412 19.4693 125.815 19.224 124.876 19.224C123.938 19.224 122.871 19.5973 121.676 20.344V22.68L122.028 30.2L117.74 31L118.124 23.224C118.039 20.3653 117.804 17.8053 117.42 15.544L121.292 14.712C121.442 15.9493 121.548 17.1547 121.612 18.328C121.932 17.9013 122.295 17.4853 122.7 17.08C123.106 16.6533 123.746 16.184 124.62 15.672C125.495 15.1387 126.38 14.872 127.276 14.872C128.172 14.872 128.93 15.16 129.548 15.736C130.167 16.312 130.562 17.1013 130.732 18.104C132.503 15.9493 134.295 14.872 136.108 14.872C137.239 14.872 138.135 15.256 138.796 16.024C139.458 16.7707 139.788 17.7947 139.788 19.096L139.596 22.68L139.948 30.36L135.628 31.16L136.012 22.904C136.012 21.432 135.884 20.4507 135.628 19.96C135.372 19.4693 134.786 19.224 133.868 19.224C132.951 19.224 131.916 19.576 130.764 20.28L130.636 22.68L130.988 30.36L126.668 31.16L127.052 22.904Z" fill="#98E309"/>
<path d="M37.3275 28.92C37.3275 28.1947 37.5835 27.576 38.0955 27.064C38.6075 26.5307 39.2048 26.264 39.8875 26.264C40.5702 26.264 41.0822 26.456 41.4235 26.84C41.7862 27.2027 41.9675 27.7467 41.9675 28.472C41.9675 29.1973 41.7222 29.8373 41.2315 30.392C40.7408 30.9253 40.1542 31.192 39.4715 31.192C38.8102 31.192 38.2875 30.9893 37.9035 30.584C37.5195 30.1787 37.3275 29.624 37.3275 28.92ZM43.3115 8.6L41.5195 22.776L38.4795 23.224V9.4L43.3115 8.6Z" fill="#CB2F33"/>
</svg>
