<svg width="138" height="30" viewBox="0 0 138 30" fill="none" xmlns="http://www.w3.org/2000/svg">
<path d="M6.56043 22.7519C5.04576 22.7519 2.8591 22.6346 0.000429869 22.3999L0.38443 14.6239L0.000429869 0.319901H8.54443C11.4244 0.319901 13.6751 1.1839 15.2964 2.9119C16.9178 4.6399 17.7284 7.0399 17.7284 10.1119C17.7284 13.9946 16.7258 17.0772 14.7204 19.3599C12.7151 21.6212 9.9951 22.7519 6.56043 22.7519ZM7.39243 3.7759C5.98443 3.7759 4.99243 3.78657 4.41643 3.8079L4.09643 14.0799L4.32043 19.2639C6.11243 19.3919 7.31776 19.4559 7.93643 19.4559C9.62176 19.4559 10.9444 18.7732 11.9044 17.4079C12.8858 16.0426 13.3764 14.0586 13.3764 11.4559C13.3764 8.85324 12.8964 6.92257 11.9364 5.6639C10.9978 4.40524 9.4831 3.7759 7.39243 3.7759ZM19.2664 15.7119C19.2664 12.9812 20.0024 10.6666 21.4744 8.7679C22.9464 6.86923 24.6638 5.9199 26.6264 5.9199C28.6104 5.9199 30.1464 6.5599 31.2344 7.8399C32.3438 9.1199 32.8984 10.8159 32.8984 12.9279C32.8984 15.7439 32.1838 18.0906 30.7544 19.9679C29.3464 21.8239 27.5651 22.7519 25.4104 22.7519C23.6398 22.7519 22.1678 22.0906 20.9944 20.7679C19.8424 19.4239 19.2664 17.7386 19.2664 15.7119ZM29.3144 14.5919C29.3144 11.4986 28.2584 9.9519 26.1464 9.9519C23.9491 9.9519 22.8504 11.4026 22.8504 14.3039C22.8504 15.8186 23.1598 17.0026 23.7784 17.8559C24.3971 18.7092 25.2078 19.1359 26.2104 19.1359C27.2344 19.1359 28.0024 18.7519 28.5144 17.9839C29.0478 17.1946 29.3144 16.0639 29.3144 14.5919ZM52.2102 14.3039C52.2102 12.8319 52.0822 11.8506 51.8262 11.3599C51.5702 10.8692 50.9728 10.6239 50.0342 10.6239C49.0955 10.6239 48.0288 10.9972 46.8342 11.7439V14.0799L47.1862 21.5999L42.8982 22.3999L43.2822 14.6239C43.1968 11.7652 42.9622 9.20524 42.5782 6.9439L46.4502 6.1119C46.5995 7.34923 46.7062 8.55457 46.7702 9.7279C47.0902 9.30124 47.4528 8.88524 47.8582 8.4799C48.2635 8.05324 48.9035 7.5839 49.7782 7.0719C50.6528 6.53857 51.5702 6.2719 52.5302 6.2719C53.5115 6.2719 54.3328 6.6559 54.9942 7.4239C55.6555 8.17057 55.9862 9.19457 55.9862 10.4959L55.7942 14.0799L56.1462 21.7599L51.8262 22.5599L52.2102 14.3039ZM58.2402 25.5679C58.2402 23.6906 59.9895 22.2186 63.4882 21.1519C62.6562 20.7252 62.2402 20.1706 62.2402 19.4879C62.2402 19.2106 62.3468 18.9332 62.5602 18.6559C62.7735 18.3786 63.0828 18.0906 63.4882 17.7919V17.5359C61.9522 17.5359 60.7255 17.1092 59.8082 16.2559C58.9122 15.4026 58.4642 14.2612 58.4642 12.8319C58.4642 10.9759 59.2215 9.36524 60.7362 7.9999C62.2508 6.61323 64.0428 5.9199 66.1122 5.9199C66.6455 5.9199 67.4242 6.02657 68.4482 6.2399C69.4722 6.45323 70.4748 6.5599 71.4562 6.5599H73.9202L73.6002 9.3439L71.2002 9.0559C71.4135 9.67457 71.5202 10.3786 71.5202 11.1679C71.5202 11.9572 71.3282 12.7466 70.9442 13.5359C70.5815 14.3039 70.1335 14.9226 69.6002 15.3919C69.0882 15.8612 68.5655 16.2772 68.0322 16.6399C67.5202 16.9812 67.0722 17.2906 66.6882 17.5679C66.3255 17.8239 66.1442 18.0586 66.1442 18.2719C66.1442 18.6772 66.5708 19.0292 67.4242 19.3279C69.6855 20.2452 71.2108 21.0239 72.0002 21.6639C72.8108 22.3039 73.2162 23.0932 73.2162 24.0319C73.2162 25.6106 72.4162 26.9012 70.8162 27.9039C69.2375 28.9279 67.3495 29.4399 65.1522 29.4399C62.9548 29.4399 61.2482 29.0879 60.0322 28.3839C58.8375 27.6799 58.2402 26.7412 58.2402 25.5679ZM67.9042 12.1279C67.9042 11.0826 67.6695 10.3146 67.2002 9.8239C66.7308 9.33324 65.9948 9.0879 64.9922 9.0879C63.0508 9.0879 62.0802 10.0479 62.0802 11.9679C62.0802 13.8666 63.1148 14.8159 65.1842 14.8159C66.9975 14.8159 67.9042 13.9199 67.9042 12.1279ZM69.0562 24.5119C69.0562 24.1279 68.8535 23.7652 68.4482 23.4239C68.0428 23.1039 67.3175 22.7199 66.2722 22.2719C64.7148 22.6986 63.6375 23.0932 63.0402 23.4559C62.4642 23.8186 62.1762 24.2666 62.1762 24.7999C62.1762 25.3332 62.4642 25.7599 63.0402 26.0799C63.6375 26.4212 64.4588 26.5919 65.5042 26.5919C66.5495 26.5919 67.4028 26.3999 68.0642 26.0159C68.7255 25.6319 69.0562 25.1306 69.0562 24.5119ZM87.2262 3.7439H80.4102L80.2182 9.6319H86.3302L85.9782 13.0239H80.1222L80.0902 14.0799L80.4742 22.3999H75.9942L76.3782 14.6239L75.9942 0.319901H87.5782L87.2262 3.7439ZM92.6464 22.3999C91.3878 22.3999 90.3531 22.0052 89.5424 21.2159C88.7531 20.4052 88.3584 19.3279 88.3584 17.9839C88.3584 16.6186 88.9771 15.4452 90.2144 14.4639C91.4518 13.4612 92.9558 12.9599 94.7264 12.9599H96.9024V12.4159C96.9024 11.3706 96.6891 10.6559 96.2624 10.2719C95.8358 9.8879 95.0358 9.6959 93.8624 9.6959C93.3718 9.6959 92.7851 9.80257 92.1024 10.0159C91.4411 10.2079 90.6944 10.5172 89.8624 10.9439L88.9344 8.4159C89.8518 7.7759 90.9611 7.1999 92.2624 6.6879C93.5851 6.1759 94.6731 5.9199 95.5264 5.9199C98.8758 5.9199 100.55 7.54123 100.55 10.7839V17.0559C100.55 18.2506 100.924 19.5839 101.67 21.0559L98.2784 22.4959C97.7451 21.4719 97.3504 20.5546 97.0944 19.7439C95.9211 21.5146 94.4384 22.3999 92.6464 22.3999ZM93.9904 19.1359C94.8438 19.1359 95.8144 18.6986 96.9024 17.8239V15.6799C95.7718 15.4239 94.8544 15.2959 94.1504 15.2959C92.8064 15.2959 92.1344 15.8932 92.1344 17.0879C92.1344 17.7066 92.3051 18.2079 92.6464 18.5919C92.9878 18.9546 93.4358 19.1359 93.9904 19.1359ZM103.774 6.9439L107.646 6.1119C107.838 7.75457 107.966 9.3119 108.03 10.7839C109.972 7.7759 111.796 6.2719 113.502 6.2719L113.15 11.2639C111.913 11.2639 110.932 11.3812 110.206 11.6159C109.502 11.8292 108.777 12.2666 108.03 12.9279V14.0799L108.382 21.5999L104.094 22.3999L104.478 14.6239C104.393 11.7652 104.158 9.20524 103.774 6.9439ZM124.493 14.3039C124.493 12.8319 124.365 11.8506 124.109 11.3599C123.853 10.8692 123.255 10.6239 122.317 10.6239C121.378 10.6239 120.311 10.9972 119.117 11.7439V14.0799L119.469 21.5999L115.181 22.3999L115.565 14.6239C115.479 11.7652 115.245 9.20524 114.861 6.9439L118.733 6.1119C118.882 7.34923 118.989 8.55457 119.053 9.7279C119.373 9.30124 119.735 8.88524 120.141 8.4799C120.546 8.05324 121.186 7.5839 122.061 7.0719C122.935 6.53857 123.821 6.2719 124.717 6.2719C125.613 6.2719 126.37 6.5599 126.989 7.1359C127.607 7.7119 128.002 8.50124 128.173 9.5039C129.943 7.34924 131.735 6.2719 133.549 6.2719C134.679 6.2719 135.575 6.6559 136.237 7.4239C136.898 8.17057 137.229 9.19457 137.229 10.4959L137.037 14.0799L137.389 21.7599L133.069 22.5599L133.453 14.3039C133.453 12.8319 133.325 11.8506 133.069 11.3599C132.813 10.8692 132.226 10.6239 131.309 10.6239C130.391 10.6239 129.357 10.9759 128.205 11.6799L128.077 14.0799L128.429 21.7599L124.109 22.5599L124.493 14.3039Z" fill="#98E309"/>
<path d="M34.7679 20.3199C34.7679 19.5946 35.0239 18.9759 35.5359 18.4639C36.0479 17.9306 36.6453 17.6639 37.3279 17.6639C38.0106 17.6639 38.5226 17.8559 38.8639 18.2399C39.2266 18.6026 39.4079 19.1466 39.4079 19.8719C39.4079 20.5972 39.1626 21.2372 38.6719 21.7919C38.1813 22.3252 37.5946 22.5919 36.9119 22.5919C36.2506 22.5919 35.7279 22.3892 35.3439 21.9839C34.9599 21.5786 34.7679 21.0239 34.7679 20.3199ZM40.7519 -9.91821e-05L38.9599 14.1759L35.9199 14.6239V0.799902L40.7519 -9.91821e-05Z" fill="#CB2F33"/>
</svg>
