<svg width="310" height="67" viewBox="0 0 310 67" fill="none" xmlns="http://www.w3.org/2000/svg">
<path d="M14.7602 51.1919C11.3522 51.1919 6.43224 50.9279 0.000234783 50.3999L0.864235 32.9039L0.000234783 0.719898H19.2242C25.7042 0.719898 30.7682 2.6639 34.4162 6.5519C38.0642 10.4399 39.8882 15.8399 39.8882 22.7519C39.8882 31.4879 37.6322 38.4239 33.1202 43.5599C28.6082 48.6479 22.4882 51.1919 14.7602 51.1919ZM16.6322 8.4959C13.4642 8.4959 11.2322 8.5199 9.93624 8.5679L9.21623 31.6799L9.72023 43.3439C13.7522 43.6319 16.4642 43.7759 17.8562 43.7759C21.6482 43.7759 24.6242 42.2399 26.7842 39.1679C28.9922 36.0959 30.0962 31.6319 30.0962 25.7759C30.0962 19.9199 29.0162 15.5759 26.8562 12.7439C24.7442 9.9119 21.3362 8.4959 16.6322 8.4959ZM43.3487 35.3519C43.3487 29.2079 45.0047 23.9999 48.3167 19.7279C51.6287 15.4559 55.4927 13.3199 59.9087 13.3199C64.3727 13.3199 67.8287 14.7599 70.2767 17.6399C72.7727 20.5199 74.0207 24.3359 74.0207 29.0879C74.0207 35.4239 72.4127 40.7039 69.1967 44.9279C66.0287 49.1039 62.0207 51.1919 57.1727 51.1919C53.1887 51.1919 49.8767 49.7039 47.2367 46.7279C44.6447 43.7039 43.3487 39.9119 43.3487 35.3519ZM65.9567 32.8319C65.9567 25.8719 63.5807 22.3919 58.8287 22.3919C53.8847 22.3919 51.4127 25.6559 51.4127 32.1839C51.4127 35.5919 52.1087 38.2559 53.5007 40.1759C54.8927 42.0959 56.7167 43.0559 58.9727 43.0559C61.2767 43.0559 63.0047 42.1919 64.1567 40.4639C65.3567 38.6879 65.9567 36.1439 65.9567 32.8319ZM117.472 32.1839C117.472 28.8719 117.184 26.6639 116.608 25.5599C116.032 24.4559 114.688 23.9039 112.576 23.9039C110.464 23.9039 108.064 24.7439 105.376 26.4239V31.6799L106.168 48.5999L96.5202 50.3999L97.3842 32.9039C97.1922 26.4719 96.6642 20.7119 95.8002 15.6239L104.512 13.7519C104.848 16.5359 105.088 19.2479 105.232 21.8879C105.952 20.9279 106.768 19.9919 107.68 19.0799C108.592 18.1199 110.032 17.0639 112 15.9119C113.968 14.7119 116.032 14.1119 118.192 14.1119C120.4 14.1119 122.248 14.9759 123.736 16.7039C125.224 18.3839 125.968 20.6879 125.968 23.6159L125.536 31.6799L126.328 48.9599L116.608 50.7599L117.472 32.1839ZM131.04 57.5279C131.04 53.3039 134.976 49.9919 142.848 47.5919C140.976 46.6319 140.04 45.3839 140.04 43.8479C140.04 43.2239 140.28 42.5999 140.76 41.9759C141.24 41.3519 141.936 40.7039 142.848 40.0319V39.4559C139.392 39.4559 136.632 38.4959 134.568 36.5759C132.552 34.6559 131.544 32.0879 131.544 28.8719C131.544 24.6959 133.248 21.0719 136.656 17.9999C140.064 14.8799 144.096 13.3199 148.752 13.3199C149.952 13.3199 151.704 13.5599 154.008 14.0399C156.312 14.5199 158.568 14.7599 160.776 14.7599H166.32L165.6 21.0239L160.2 20.3759C160.68 21.7679 160.92 23.3519 160.92 25.1279C160.92 26.9039 160.488 28.6799 159.624 30.4559C158.808 32.1839 157.8 33.5759 156.6 34.6319C155.448 35.6879 154.272 36.6239 153.072 37.4399C151.92 38.2079 150.912 38.9039 150.048 39.5279C149.232 40.1039 148.824 40.6319 148.824 41.1119C148.824 42.0239 149.784 42.8159 151.704 43.4879C156.792 45.5519 160.224 47.3039 162 48.7439C163.824 50.1839 164.736 51.9599 164.736 54.0719C164.736 57.6239 162.936 60.5279 159.336 62.7839C155.784 65.0879 151.536 66.2399 146.592 66.2399C141.648 66.2399 137.808 65.4479 135.072 63.8639C132.384 62.2799 131.04 60.1679 131.04 57.5279ZM152.784 27.2879C152.784 24.9359 152.256 23.2079 151.2 22.1039C150.144 20.9999 148.488 20.4479 146.232 20.4479C141.864 20.4479 139.68 22.6079 139.68 26.9279C139.68 31.1999 142.008 33.3359 146.664 33.3359C150.744 33.3359 152.784 31.3199 152.784 27.2879ZM155.376 55.1519C155.376 54.2879 154.92 53.4719 154.008 52.7039C153.096 51.9839 151.464 51.1199 149.112 50.1119C145.608 51.0719 143.184 51.9599 141.84 52.7759C140.544 53.5919 139.896 54.5999 139.896 55.7999C139.896 56.9999 140.544 57.9599 141.84 58.6799C143.184 59.4479 145.032 59.8319 147.384 59.8319C149.736 59.8319 151.656 59.3999 153.144 58.5359C154.632 57.6719 155.376 56.5439 155.376 55.1519ZM196.258 8.4239H180.922L180.49 21.6719H194.242L193.45 29.3039H180.274L180.202 31.6799L181.066 50.3999H170.986L171.85 32.9039L170.986 0.719898H197.05L196.258 8.4239ZM208.454 50.3999C205.622 50.3999 203.294 49.5119 201.47 47.7359C199.694 45.9119 198.806 43.4879 198.806 40.4639C198.806 37.3919 200.198 34.7519 202.982 32.5439C205.766 30.2879 209.15 29.1599 213.134 29.1599H218.03V27.9359C218.03 25.5839 217.55 23.9759 216.59 23.1119C215.63 22.2479 213.83 21.8159 211.19 21.8159C210.086 21.8159 208.766 22.0559 207.23 22.5359C205.742 22.9679 204.062 23.6639 202.19 24.6239L200.102 18.9359C202.166 17.4959 204.662 16.1999 207.59 15.0479C210.566 13.8959 213.014 13.3199 214.934 13.3199C222.47 13.3199 226.238 16.9679 226.238 24.2639V38.3759C226.238 41.0639 227.078 44.0639 228.758 47.3759L221.126 50.6159C219.926 48.3119 219.038 46.2479 218.462 44.4239C215.822 48.4079 212.486 50.3999 208.454 50.3999ZM211.478 43.0559C213.398 43.0559 215.582 42.0719 218.03 40.1039V35.2799C215.486 34.7039 213.422 34.4159 211.838 34.4159C208.814 34.4159 207.302 35.7599 207.302 38.4479C207.302 39.8399 207.686 40.9679 208.454 41.8319C209.222 42.6479 210.23 43.0559 211.478 43.0559ZM233.492 15.6239L242.204 13.7519C242.636 17.4479 242.924 20.9519 243.068 24.2639C247.436 17.4959 251.54 14.1119 255.38 14.1119L254.588 25.3439C251.804 25.3439 249.596 25.6079 247.964 26.1359C246.38 26.6159 244.748 27.5999 243.068 29.0879V31.6799L243.86 48.5999L234.212 50.3999L235.076 32.9039C234.884 26.4719 234.356 20.7119 233.492 15.6239ZM280.108 32.1839C280.108 28.8719 279.82 26.6639 279.244 25.5599C278.668 24.4559 277.324 23.9039 275.212 23.9039C273.1 23.9039 270.7 24.7439 268.012 26.4239V31.6799L268.804 48.5999L259.156 50.3999L260.02 32.9039C259.828 26.4719 259.3 20.7119 258.436 15.6239L267.148 13.7519C267.484 16.5359 267.724 19.2479 267.868 21.8879C268.588 20.9279 269.404 19.9919 270.316 19.0799C271.228 18.1199 272.668 17.0639 274.636 15.9119C276.604 14.7119 278.596 14.1119 280.612 14.1119C282.628 14.1119 284.332 14.7599 285.724 16.0559C287.116 17.3519 288.004 19.1279 288.388 21.3839C292.372 16.5359 296.404 14.1119 300.484 14.1119C303.028 14.1119 305.044 14.9759 306.532 16.7039C308.02 18.3839 308.764 20.6879 308.764 23.6159L308.332 31.6799L309.124 48.9599L299.404 50.7599L300.268 32.1839C300.268 28.8719 299.98 26.6639 299.404 25.5599C298.828 24.4559 297.508 23.9039 295.444 23.9039C293.38 23.9039 291.052 24.6959 288.46 26.2799L288.172 31.6799L288.964 48.9599L279.244 50.7599L280.108 32.1839Z" fill="#98E309"/>
<path d="M78.2271 45.7199C78.2271 44.0879 78.8031 42.6959 79.9551 41.5439C81.1071 40.3439 82.4511 39.7439 83.9871 39.7439C85.5231 39.7439 86.6751 40.1759 87.4431 41.0399C88.2591 41.8559 88.6671 43.0799 88.6671 44.7119C88.6671 46.3439 88.1151 47.7839 87.0111 49.0319C85.9071 50.2319 84.5871 50.8319 83.0511 50.8319C81.5631 50.8319 80.3871 50.3759 79.5231 49.4639C78.6591 48.5519 78.2271 47.3039 78.2271 45.7199ZM91.6911 -0.000101089L87.6591 31.8959L80.8191 32.9039V1.7999L91.6911 -0.000101089Z" fill="#CB2F33"/>
</svg>
